<?xml version="1.0" encoding="UTF-8" standalone="no"?>
<!-- Created with Inkscape (http://www.inkscape.org/) -->

<svg
   width="20mm"
   height="18.5mm"
   viewBox="0 0 20 18.5"
   version="1.1"
   id="svg1972"
   xmlns="http://www.w3.org/2000/svg"
   xmlns:svg="http://www.w3.org/2000/svg">
  <defs
     id="defs1969">
    <clipPath
       clipPathUnits="userSpaceOnUse"
       id="clipPath20">
      <path
         d="M 0,4248.7 H 4913.14 V 7622.24 H 0 Z"
         id="path18" />
    </clipPath>
  </defs>
  <g
     id="layer1">
    <path
       d="m 1.4243692,11.619471 v 0.161255 H 18.48818 v -0.161255 l -0.154521,-0.04607 c -0.538703,1.803057 -1.644016,3.361569 -3.10923,4.469095 -1.465392,1.108415 -3.289446,1.764959 -5.2682873,1.764959 -1.9790188,0 -3.8028954,-0.656544 -5.2681988,-1.764959 -1.4651261,-1.10753 -2.5703501,-2.666042 -3.1090514,-4.469099 l -0.1545223,0.04607 v 0.161254 -0.161254 l -0.1545224,0.04608 c 0.5589029,1.870392 1.7047068,3.48561 3.2236144,4.634783 1.5187302,1.148283 3.4118057,1.829636 5.4626805,1.829636 2.0506983,0 3.9439503,-0.681352 5.4627703,-1.829636 1.518996,-1.149172 2.664799,-2.764391 3.223792,-4.634784 l 0.06193,-0.207328 H 1.2079141 l 0.061933,0.207329 0.1545224,-0.04608"
       style="fill:#000000;fill-opacity:1;fill-rule:nonzero;stroke:none;stroke-width:0.00886023"
       id="path1750" />
    <path
       d="M 18.48818,6.510668 V 6.3494114 H 1.4243692 v 0.161256 l 0.1545223,0.046074 C 2.1175928,4.7545714 3.2228168,3.19535 4.6879429,2.0874678 6.1532463,0.9794973 7.9771229,0.32260038 9.9561417,0.32260038 c 1.9788413,0 3.8028953,0.65689692 5.2682873,1.76486742 1.465214,1.1079707 2.570527,2.6671036 3.10923,4.4692725 l 0.154521,-0.046074 v -0.161256 0.161256 L 18.642704,6.464592 C 18.083799,4.5946448 16.937908,2.9788064 15.418912,1.8301673 13.900092,0.68152829 12.00684,0 9.9561417,0 7.9052669,0 6.0121914,0.68152829 4.4934612,1.8301673 2.9745536,2.9788064 1.8287497,4.5946448 1.2698469,6.4645943 L 1.2079141,6.6719234 H 18.704636 l -0.06193,-0.2073291 -0.154524,0.046074"
       style="fill:#000000;fill-opacity:1;fill-rule:nonzero;stroke:none;stroke-width:0.00886023"
       id="path1752" />
    <path
       d="m 16.688933,12.707507 v 0 c -0.05184,0.09569 -0.01631,0.215303 0.07939,0.266692 0.09569,0.05227 0.215303,0.01682 0.267224,-0.07886 0.05184,-0.09569 0.01631,-0.215303 -0.07939,-0.267578 -0.09569,-0.05227 -0.215304,-0.01595 -0.267226,0.07974 z m -0.692069,1.057025 v 0 c -0.06689,0.08595 -0.05156,0.209985 0.03428,0.277323 0.08585,0.06645 0.209723,0.05139 0.276615,-0.03456 0.06689,-0.08595 0.05156,-0.209986 -0.03428,-0.276439 -0.08595,-0.06733 -0.209724,-0.05228 -0.276616,0.03368 z m -0.856165,0.93032 v 0 c -0.08009,0.07355 -0.08515,0.198471 -0.01147,0.278213 0.0738,0.08063 0.198468,0.08505 0.278564,0.01147 0.08001,-0.07353 0.08515,-0.198468 0.01133,-0.278209 -0.07372,-0.08063 -0.198468,-0.08507 -0.278476,-0.01147 z m -0.996596,0.777044 v 0 c -0.091,0.05936 -0.116507,0.181633 -0.0568,0.272893 0.05963,0.09125 0.181812,0.116067 0.272805,0.05671 0.09108,-0.05936 0.116507,-0.181636 0.05689,-0.272896 -0.05963,-0.09127 -0.181812,-0.116066 -0.272896,-0.05669 z m -1.110186,0.602493 v 0 c -0.09959,0.04341 -0.144864,0.160371 -0.101007,0.259604 0.04377,0.10012 0.160104,0.145308 0.259693,0.101014 0.09968,-0.04341 0.144953,-0.16037 0.101096,-0.259604 -0.04377,-0.09924 -0.160106,-0.144423 -0.259782,-0.101014 z m -1.194712,0.410231 v 0 c -0.105526,0.02747 -0.169496,0.134673 -0.142738,0.240109 0.02667,0.10544 0.133878,0.169232 0.239402,0.142652 0.105526,-0.02659 0.169408,-0.133792 0.142738,-0.239225 -0.02676,-0.10632 -0.133878,-0.170119 -0.239402,-0.143536 z m -1.246368,0.207328 v 0 c -0.108538,0.0088 -0.189254,0.104547 -0.180306,0.212644 0.0089,0.108987 0.104108,0.189611 0.212646,0.180751 0.108448,-0.0088 0.189166,-0.104547 0.180216,-0.212647 -0.0089,-0.108973 -0.104108,-0.189608 -0.212556,-0.180748 z m -1.2640879,9.71e-4 v 0 c -0.1084491,-0.0088 -0.203608,0.07177 -0.2123794,0.180752 -0.00879,0.108092 0.072033,0.203784 0.1804823,0.212644 0.1085389,0.0088 0.203608,-0.07265 0.2123794,-0.180749 0.00885,-0.108987 -0.071944,-0.203785 -0.1804823,-0.212647 z M 8.0821166,16.487243 v 0 c -0.1055269,-0.02659 -0.2126457,0.03721 -0.2392257,0.142651 -0.026577,0.106321 0.03748,0.212645 0.143004,0.239225 C 8.091508,16.895708 8.198628,16.831908 8.22512,16.72647 8.2516971,16.62103 8.18764,16.513823 8.0821166,16.487243 Z M 6.886164,16.077902 v 0 c -0.099677,-0.04429 -0.215924,0.0017 -0.2596046,0.101 -0.04368,0.10012 0.00166,0.216189 0.10136,0.259604 0.099677,0.04429 0.215924,-0.0017 0.2596932,-0.101014 0.04368,-0.10012 -0.00166,-0.216186 -0.1014492,-0.2596 z M 5.7745606,15.476295 v 0 c -0.091084,-0.06024 -0.213177,-0.03456 -0.2728065,0.05672 -0.05954,0.09127 -0.033933,0.213532 0.057148,0.272896 0.091172,0.05936 0.2132653,0.03367 0.2728059,-0.05671 0.059629,-0.09127 0.034023,-0.21353 -0.057147,-0.272896 z M 4.7769883,14.699283 v 0 c -0.080096,-0.07353 -0.2047599,-0.06823 -0.2784768,0.0124 -0.073628,0.07975 -0.0684,0.204672 0.011693,0.27821 0.080096,0.07355 0.2047596,0.06823 0.2784768,-0.01148 0.073716,-0.08063 0.068491,-0.204671 -0.011693,-0.279098 z m -0.856872,-0.928551 v 0 c -0.066984,-0.08595 -0.19085,-0.101 -0.2767047,-0.03455 -0.085765,0.06733 -0.1010053,0.19138 -0.034024,0.277324 v 0 c 0.066984,0.08595 0.19085,0.101014 0.2766163,0.03367 0.085768,-0.06645 0.1010933,-0.190493 0.034112,-0.27644 z M 3.2272471,12.713707 v 0 c -0.05201,-0.09569 -0.1716227,-0.130244 -0.2673131,-0.07885 -0.095602,0.05227 -0.131042,0.171888 -0.079032,0.267579 0.05192,0.09569 0.171622,0.131132 0.267224,0.07886 0.095689,-0.05227 0.131044,-0.171888 0.079121,-0.26758 z m -0.00816,-7.2822143 v 0 C 3.2708384,5.3358021 3.2352212,5.2161892 3.1394412,5.163914 3.043662,5.1125247 2.9241379,5.1479656 2.8723055,5.243656 v 0 c -0.051744,0.095689 -0.01604,0.2153032 0.079655,0.2675785 0.09578,0.051391 0.215392,0.01594 0.2671356,-0.079741 z m 0.69092,-1.0587963 v 0 C 3.976732,4.286752 3.9612265,4.1628863 3.8752825,4.0961687 3.7893384,4.0293628 3.6655612,4.044868 3.5987551,4.1308124 v 0 c -0.066807,0.085944 -0.0513,0.2097215 0.034644,0.2765275 0.085944,0.066807 0.20981,0.0513 0.276616,-0.034644 z M 4.765026,3.4417529 v 0 C 4.844946,3.3678596 4.849906,3.2431951 4.776106,3.163276 4.7022076,3.0832684 4.5775444,3.0783067 4.4975367,3.1522 v 0 c -0.07992,0.073805 -0.08488,0.198558 -0.01108,0.2784771 0.073893,0.080008 0.198558,0.084969 0.2785652,0.01108 z M 5.7606491,2.6634712 v 0 C 5.851644,2.6037519 5.8769823,2.4815712 5.8171771,2.3905761 5.7574611,2.2995831 5.6352769,2.2742415 5.5442829,2.3340481 v 0 c -0.090993,0.059719 -0.1163333,0.1819001 -0.056528,0.2728952 0.059719,0.090995 0.1819,0.1163346 0.2728942,0.056528 z M 6.8701257,2.0597356 v 0 c 0.099588,-0.044036 0.144688,-0.16037 0.10074,-0.2599588 C 6.92692,1.7001879 6.8105851,1.6550893 6.710996,1.699036 v 0 C 6.611408,1.742983 6.566308,1.8593175 6.610256,1.9589064 6.654205,2.0584954 6.770536,2.1035936 6.8701257,2.0597356 Z M 8.0643954,1.6475581 v 0 C 8.16992,1.6208003 8.2337137,1.5135029 8.2068674,1.4079777 8.1801091,1.3025411 8.072812,1.2387475 7.9672869,1.265594 7.8617617,1.2923517 7.7980566,1.3996492 7.8248149,1.5051744 7.8516606,1.6106117 7.9589589,1.6744048 8.0643954,1.6475581 Z M 9.3104966,1.4388999 v 0 C 9.4190337,1.4298599 9.4995726,1.3345265 9.4905366,1.2260774 9.4814966,1.1176283 9.3862526,1.0370002 9.2777137,1.0460378 9.1692657,1.0550738 9.0886383,1.1504113 9.097764,1.2588602 9.106804,1.3673095 9.202048,1.4479375 9.3104966,1.4388999 Z m 1.2640874,-0.00221 v 0 c 0.108538,0.0086 0.203519,-0.072296 0.212202,-0.1808338 0.0086,-0.108449 -0.0723,-0.2034306 -0.180837,-0.2121136 -0.108449,-0.00868 -0.20343,0.072211 -0.212114,0.1807483 -0.0087,0.1085379 0.07221,0.2035195 0.180748,0.2122024 z m 1.246899,0.2042282 v 0 c 0.105525,0.026404 0.212557,-0.037745 0.239048,-0.1433585 0.02641,-0.1055252 -0.03775,-0.2125567 -0.143358,-0.2390487 -0.105525,-0.026403 -0.212556,0.037745 -0.239048,0.1433582 -0.0264,0.1055254 0.03775,0.2125568 0.143358,0.239049 z M 13.017879,2.04902 v 0 c 0.09977,0.043504 0.215924,-0.00196 0.259517,-0.101716 0.04359,-0.099767 -0.002,-0.2159235 -0.101716,-0.2595157 -0.09968,-0.043593 -0.215924,0.00196 -0.259516,0.1016267 -0.04359,0.099767 0.0019,0.2160121 0.101715,0.259605 z m 1.112312,0.6003683 v 0 c 0.09117,0.059452 0.213266,0.033759 0.272717,-0.057413 0.05945,-0.09126 0.03376,-0.2133539 -0.05741,-0.272806 -0.09117,-0.059452 -0.213355,-0.033668 -0.272806,0.057503 -0.05945,0.091172 -0.03367,0.2132654 0.05751,0.272718 z m 0.998461,0.7751808 v 0 c 0.08027,0.07354 0.204935,0.068224 0.278476,-0.01196 0.07363,-0.080273 0.06823,-0.2049368 -0.012,-0.2784768 v 0 c -0.08019,-0.073628 -0.204848,-0.068224 -0.278477,0.01196 -0.07353,0.080187 -0.06823,0.2048486 0.012,0.2784768 z m 0.858111,0.9280194 v 0 c 0.06707,0.085677 0.190936,0.1008294 0.276614,0.03376 0.08577,-0.067072 0.100827,-0.190938 0.03376,-0.2767046 -0.06707,-0.085674 -0.190937,-0.1008278 -0.276705,-0.033754 -0.08568,0.067072 -0.100827,0.190938 -0.03367,0.2767046 z m 0.694109,1.0558732 v 0 c 0.052,0.095689 0.171711,0.1302467 0.267312,0.078856 0.0956,-0.052276 0.130867,-0.171888 0.07877,-0.2675788 -0.05209,-0.095689 -0.1718,-0.131132 -0.2674,-0.078856 -0.09551,0.052276 -0.130773,0.171888 -0.07868,0.2675786"
       style="fill:#000000;fill-opacity:1;fill-rule:nonzero;stroke:none;stroke-width:0.00886023"
       id="path1754" />
    <path
       d="m 9.4558931,3.8054651 -0.052366,0.00515 0.043949,-0.00799 z"
       style="fill:#ffffff;fill-opacity:1;fill-rule:nonzero;stroke:none;stroke-width:0.00886023"
       id="path1756" />
    <path
       d="m 10.329689,3.7762263 v 2.8115251 l 0.737082,0.054931 V 3.6907251 l -0.737082,0.085501"
       style="fill:#000000;fill-opacity:1;fill-rule:nonzero;stroke:none;stroke-width:0.00886023"
       id="path1758" />
    <path
       d="M 7.7792737,4.071626 7.404664,4.1149517 V 6.370676 L 7.7792737,6.39903 V 4.071626"
       style="fill:#000000;fill-opacity:1;fill-rule:nonzero;stroke:none;stroke-width:0.00886023"
       id="path1760" />
    <path
       d="M 12.447724,2.7048481 C 12.261571,2.5399596 12.070722,2.4713816 12.018003,2.4547244 l -0.444694,0.078944 c -0.158244,0.158774 -0.249947,0.3389917 -0.302134,0.5070704 -0.05387,0.173394 -0.06557,0.3332328 -0.06557,0.4370744 0,0.0272 8e-4,0.050413 0.0018,0.069199 l 1.66794,0.2938938 V 3.7386588 C 12.875241,3.4738268 12.82146,3.2634852 12.741718,3.0951411 12.661799,2.9267968 12.555476,2.8000069 12.447735,2.7048481"
       style="fill:#000000;fill-opacity:1;fill-rule:nonzero;stroke:none;stroke-width:0.00886023"
       id="path1762" />
    <path
       d="M 7.779008,3.925078 C 7.781238,3.6089455 7.847054,3.3620996 7.923872,3.1817053 l -0.12608,0.022328 c -0.092591,0.023213 -0.160636,0.072831 -0.2155691,0.1399022 -0.054846,0.067249 -0.094272,0.152396 -0.1210298,0.2383398 -0.05396,0.1717122 -0.056794,0.3439542 -0.056623,0.3686742 l 8.86e-5,0.00221 v 8.057e-4 0.01426 l 0.374344,-0.043151"
       style="fill:#000000;fill-opacity:1;fill-rule:nonzero;stroke:none;stroke-width:0.00886023"
       id="path1764" />
    <path
       d="m 9.162532,3.27713 c 0,0.066185 0.044211,0.1213853 0.104284,0.138928 L 9.1576589,3.6496137 9.4724617,3.6144387 9.3566594,3.413666 c 0.055732,-0.020024 0.095777,-0.073981 0.095777,-0.136536 0,-0.062464 -0.039429,-0.1151827 -0.094628,-0.135828 L 11.139511,2.975084 11.132249,2.9975 c -0.03765,0.120764 -0.05644,0.2347959 -0.06495,0.3312836 l -1.1435001,0.093387 1.1362351,0.05582 c 0,0.025428 6.28e-4,0.047315 0.0012,0.066717 L 10.2483,3.6387156 7.9249726,3.9080663 C 7.930344,3.564112 8.0153503,3.3147855 8.0990794,3.1504284 L 11.346383,2.5740705 c -0.05768,0.077704 -0.104374,0.15718 -0.14141,0.2360364 L 9.3468971,3.1376695 c -0.01276,-0.00364 -0.02552,-0.00551 -0.039428,-0.00551 -0.080096,0 -0.1449537,0.064947 -0.1449537,0.1449539"
       style="fill:#000000;fill-opacity:1;fill-rule:nonzero;stroke:none;stroke-width:0.00886023"
       id="path1766" />
    <path
       d="m 12.875053,3.9887831 v 2.3553123 l -0.405266,0.081514 -0.12431,-0.9994329 -0.03216,1.0304438 -0.531968,0.1063223 -0.08134,-1.3325767 c 0,0 -0.06185,0.9684218 -0.08674,1.3671321 L 11.299617,6.65952 11.212257,6.65332 V 3.6957756 l 1.662796,0.2930076"
       style="fill:#000000;fill-opacity:1;fill-rule:nonzero;stroke:none;stroke-width:0.00886023"
       id="path1768" />
    <path
       d="M 10.184027,3.7930608 7.924936,4.0547916 v 2.3548695 l 2.259091,0.1674583 V 3.7930608"
       style="fill:#000000;fill-opacity:1;fill-rule:nonzero;stroke:none;stroke-width:0.00886023"
       id="path1770" />
    <path
       d="m 6.7033771,4.1851255 c -0.01436,0.1074733 -0.07664,0.3640664 -0.338992,0.3640664 0.2623515,0 0.3246389,0.2567692 0.338992,0.363978 0.01436,-0.107208 0.076641,-0.363978 0.3389035,-0.363978 -0.2622617,0 -0.3245497,-0.2565919 -0.3389035,-0.3640664"
       style="fill:#000000;fill-opacity:1;fill-rule:nonzero;stroke:none;stroke-width:0.00886023"
       id="path1772" />
    <path
       d="m 7.0422806,5.084172 c -0.00948,0.070881 -0.05068,0.240998 -0.2241635,0.240998 0.1734823,0 0.2146835,0.16923 0.2241635,0.240998 0.00956,-0.071768 0.05068,-0.240998 0.2242525,-0.240998 -0.173572,0 -0.2146834,-0.170116 -0.2242525,-0.240998"
       style="fill:#000000;fill-opacity:1;fill-rule:nonzero;stroke:none;stroke-width:0.00886023"
       id="path1774" />
    <path
       d="M 9.4296674,1.9081372 C 9.4149589,2.0187132 9.3509,2.2824817 9.0811057,2.2824817 c 0.2697943,0 0.3338537,0.2638572 0.3485617,0.3744327 0.0148,-0.110576 0.078856,-0.3744327 0.3486497,-0.3744327 -0.2697937,0 -0.3338531,-0.2637689 -0.3486497,-0.3743445"
       style="fill:#000000;fill-opacity:1;fill-rule:nonzero;stroke:none;stroke-width:0.00886023"
       id="path1776" />
    <path
       d="m 8.071484,2.3991708 c -0.00744,0.055288 -0.039429,0.187216 -0.1743697,0.187216 0.1349417,0 0.1669257,0.131928 0.1743697,0.187216 0.00736,-0.055288 0.039337,-0.187216 0.17428,-0.187216 -0.1349423,0 -0.1669263,-0.131928 -0.17428,-0.187216"
       style="fill:#000000;fill-opacity:1;fill-rule:nonzero;stroke:none;stroke-width:0.00886023"
       id="path1778" />
    <path
       d="M 5.8177983,13.160263 H 13.379473 V 12.837731 H 5.8177983 Z"
       style="fill:#000000;fill-opacity:1;fill-rule:nonzero;stroke:none;stroke-width:0.00886023"
       id="path1780" />
    <path
       d="m 7.312252,14.31032 h 4.572777 V 13.987821 H 7.312252 Z"
       style="fill:#000000;fill-opacity:1;fill-rule:nonzero;stroke:none;stroke-width:0.00886023"
       id="path1782" />
    <path
       d="M 8.1935777,15.459492 H 11.003685 V 15.136957 H 8.1935777 Z"
       style="fill:#000000;fill-opacity:1;fill-rule:nonzero;stroke:none;stroke-width:0.00886023"
       id="path1784" />
    <path
       d="m 0,10.581053 c 0.01639044,-0.04873 0.07522344,-0.181634 0.17640712,-0.397824 L 0.6687696,9.1164589 1.3170719,7.7050251 c 0.024809,-0.054931 0.037214,-0.10012 0.037214,-0.1355617 0,-0.060247 -0.039959,-0.090374 -0.1197016,-0.090374 -0.1569147,0 -0.27874266,0.068224 -0.36548414,0.2055572 -0.0866529,0.136448 -0.12997943,0.2879571 -0.12997943,0.4554148 0,0.057594 0.005491,0.1231589 0.016568,0.1966983 -0.0878048,0 -0.15700303,-0.038989 -0.20750627,-0.116956 -0.0505033,-0.077971 -0.0757548,-0.163028 -0.0757548,-0.2560594 0,-0.1727749 0.0903743,-0.3313726 0.27129981,-0.4766806 0.18092539,-0.144422 0.37062273,-0.2170751 0.56926903,-0.2170751 0.1601045,0 0.2796285,0.07354 0.3583958,0.2197331 0.078679,0.1461943 0.1181067,0.412 0.1181067,0.79742 0,0.1975823 -0.013735,0.4651617 -0.041023,0.804508 C 1.721099,9.4309971 1.7074539,9.6480714 1.7074539,9.7437611 1.8260044,9.3911257 2.0100309,8.9853274 2.2596233,8.5272537 2.5092157,8.06918 2.7107858,7.727176 2.8645108,7.499468 2.9082817,7.431244 2.9451388,7.3842851 2.9753534,7.357704 c 0.030036,-0.025691 0.068312,-0.038103 0.114828,-0.038103 0.038276,0 0.098437,0.015057 0.1805721,0.044297 -0.090285,0.1949257 -0.2024561,0.6219874 -0.3364224,1.28296 -0.134056,0.6600874 -0.2011273,1.1722068 -0.2011273,1.536364 0,0.03544 6.286e-4,0.06734 0.00213,0.09658 0.00133,0.02835 0.00336,0.05138 0.00612,0.06911 0.00265,0.01774 0.00816,0.03899 0.0164,0.06379 l 0.01232,0.04962 c 0.00273,0.008 0.00956,0.02747 0.020467,0.0576 l 0.024629,0.06113 c -0.172332,0 -0.2858308,-0.0381 -0.3404984,-0.115181 -0.054775,-0.0762 -0.082064,-0.216192 -0.082064,-0.418204 0,-0.2737802 0.029328,-0.563511 0.08816,-0.8700744 C 2.5397029,8.8719023 2.6265333,8.4971149 2.7414498,8.0532171 2.5691189,8.2995314 2.3792442,8.648624 2.1720921,9.0996091 1.9647629,9.5514794 1.8113926,9.9218394 1.7118037,10.211567 l -0.027997,0.0089 c -0.018696,0.008 -0.037389,0.01152 -0.055996,0.01152 -0.087893,0 -0.1459278,-0.05139 -0.1738376,-0.15594 -0.027999,-0.1036637 -0.041908,-0.2693517 -0.041908,-0.496174 0,-0.139104 0.0054,-0.377444 0.016389,-0.7141326 0.010893,-0.3358017 0.016391,-0.583888 0.016391,-0.7424857 0,-0.027469 -7.029e-4,-0.068224 -0.00204,-0.123156 -0.00141,-0.054046 -0.00204,-0.093918 -0.00204,-0.118728 L 1.1857785,8.4803091 0.96010874,9.00572 0.77953749,9.4407566 C 0.71397211,9.5940389 0.66063326,9.717196 0.61952206,9.8093429 L 0.48006207,10.09287 c -0.049174,0.09569 -0.0917032,0.169228 -0.12723267,0.221505 -0.0355296,0.05227 -0.0738056,0.101008 -0.1148284,0.146192 -0.0410231,0.0443 -0.0807167,0.0762 -0.11899288,0.09392 -0.0383648,0.0177 -0.07796984,0.02658 -0.118992880027,0.02658"
       style="fill:#000000;fill-opacity:1;fill-rule:nonzero;stroke:none;stroke-width:0.00886023"
       id="path1786" />
    <path
       d="m 3.303622,11.102919 c 0,0.0762 0.026404,0.114299 0.079209,0.114299 0.05768,0 0.1331707,-0.0576 0.2265556,-0.173662 0.093299,-0.116069 0.185268,-0.275553 0.2759072,-0.480223 -0.3878117,0.193152 -0.5816734,0.373014 -0.5816718,0.539586 z m -0.160016,0 c 0,-0.06557 0.01922,-0.129358 0.057592,-0.192264 0.038455,-0.06291 0.079567,-0.11607 0.123512,-0.159484 0.043947,-0.04342 0.111904,-0.09215 0.2038739,-0.145308 0.091969,-0.05316 0.162674,-0.09037 0.2121137,-0.112526 L 3.9630005,10.383471 C 4.0093388,10.266515 4.0748167,10.052985 4.1593427,9.7437623 3.9493553,10.042351 3.7530128,10.191204 3.5702265,10.191204 c -0.09126,0 -0.1729518,-0.02747 -0.2448965,-0.08152 -0.071944,-0.05494 -0.1079173,-0.140876 -0.1079173,-0.2587177 0,-0.1479663 0.047048,-0.3340303 0.141054,-0.5581943 0.093917,-0.2241629 0.174104,-0.3366874 0.2404665,-0.3366874 0.0272,0 0.068133,0.014183 0.1227147,0.043411 0.054491,0.028354 0.087272,0.059366 0.098172,0.092146 -0.051832,0.070882 -0.10836,0.1904943 -0.169762,0.3570663 -0.061403,0.166572 -0.092059,0.2977051 -0.092059,0.39428 0,0.101008 0.0381,0.1515097 0.1145613,0.1515097 h 0.00408 c 0.15275,0 0.3327012,-0.165684 0.5400306,-0.4961709 0.00265,-0.0062 0.00885,-0.036326 0.01842,-0.093034 0.00948,-0.055823 0.01976,-0.1027777 0.030656,-0.1408782 0.010893,-0.038989 0.03544,-0.076196 0.073628,-0.1134103 0.038188,-0.036326 0.084615,-0.054932 0.139106,-0.054932 0.010907,0 0.054491,0.00531 0.1309533,0.015943 -0.00273,0.068224 -0.03482,0.2179617 -0.096221,0.44744 C 4.4519044,9.7889486 4.380314,10.013114 4.2984456,10.231959 4.6094395,10.103487 4.8289072,9.8722349 4.9572029,9.5390914 L 5.0269319,9.5958 c -0.1036635,0.3420086 -0.3642426,0.606042 -0.7815591,0.792107 -0.2764388,0.656542 -0.5500424,0.985258 -0.8208993,0.985258 -0.077084,0 -0.143182,-0.02303 -0.198292,-0.06911 -0.05502,-0.04519 -0.082577,-0.112527 -0.082577,-0.201128"
       style="fill:#000000;fill-opacity:1;fill-rule:nonzero;stroke:none;stroke-width:0.00886023"
       id="path1788" />
    <path
       d="m 5.9090583,8.9029274 c 0.062996,0.0124 0.154168,0.031011 0.2734268,0.056709 0.1192572,0.024806 0.1939503,0.039874 0.2241635,0.044297 C 6.5050857,8.5316834 6.6500389,8.0718383 6.841508,7.6235109 6.5980291,7.8175491 6.2872126,8.2437263 5.9090583,8.9029274 Z M 4.8668311,10.328538 c 0,-0.202901 0.2010381,-0.6140134 0.6032037,-1.232458 C 5.3058547,9.08456 5.1048164,9.0792457 4.8668311,9.0792457 4.9324851,8.9046989 5.0910831,8.8169829 5.342802,8.8169829 c 0.054756,0 0.15594,0.00973 0.3036396,0.028354 C 5.9540686,8.3996669 6.2408737,8.0248794 6.5069463,7.7192017 6.7730189,7.4144109 6.94978,7.2620149 7.0374074,7.2620149 c 0.07106,0 0.164092,0.05316 0.2790086,0.1603697 -0.090287,0.068224 -0.2194674,0.397824 -0.3877234,0.9879148 -0.168256,0.5900903 -0.2523383,1.0517086 -0.2523383,1.384852 0,0.2206206 0.047846,0.3304856 0.143536,0.3304856 0.147788,0 0.3296886,-0.208213 0.5457891,-0.6237576 l 0.073805,0.078856 C 7.351944,9.8111 7.2397749,9.9953926 7.1030611,10.134498 c -0.1368017,0.139106 -0.279008,0.209103 -0.426708,0.209103 -0.243568,0 -0.3652188,-0.208216 -0.3652188,-0.623761 0,-0.137332 0.017983,-0.3101074 0.053954,-0.5200943 C 6.2254549,9.1775914 6.029644,9.1510143 5.777748,9.1200017 5.5233709,9.5718731 5.2826389,10.060073 5.055551,10.582825 4.9297361,10.517259 4.8668288,10.432203 4.8668288,10.328538"
       style="fill:#000000;fill-opacity:1;fill-rule:nonzero;stroke:none;stroke-width:0.00886023"
       id="path1790" />
    <path
       d="m 7.0907469,10.166394 c 0,-0.0027 0.024634,-0.0638 0.073895,-0.184294 0.049257,-0.120496 0.095689,-0.2551743 0.13946,-0.4049109 0.043771,-0.149736 0.065654,-0.27644 0.065654,-0.3792177 0.058833,-0.063794 0.128296,-0.095688 0.2084806,-0.095688 0.093476,0 0.1403457,0.039874 0.1403457,0.119612 0,0.073541 -0.022766,0.1940377 -0.068224,0.3623822 0.2799829,-0.3668137 0.5392332,-0.55022 0.778016,-0.55022 0.110664,0 0.19652,0.037211 0.2573897,0.110752 0.06096,0.073541 0.091348,0.1612583 0.091348,0.2631486 0,0.090376 -0.027377,0.201128 -0.082046,0.334032 -0.05476,0.1329029 -0.082046,0.2268223 -0.082046,0.2808688 0,0.07974 0.033669,0.119612 0.1009183,0.119612 0.090287,0 0.1881023,-0.0629 0.2933623,-0.1869505 C 9.112648,9.8305891 9.2077177,9.6843971 9.2925109,9.5142817 l 0.06973,0.057587 C 9.14614,10.061838 8.9006234,10.306382 8.6256914,10.306382 c -0.104108,0 -0.1849143,-0.02658 -0.242416,-0.07797 -0.0575,-0.05227 -0.086211,-0.1205 -0.086211,-0.205559 0,-0.054046 0.019137,-0.1435364 0.0575,-0.266693 0.038189,-0.123156 0.057413,-0.2144166 0.057413,-0.2746669 0,-0.1063211 -0.048023,-0.1603697 -0.1438017,-0.1603697 -0.076287,0 -0.15718,0.031011 -0.2430354,0.093032 -0.085768,0.06114 -0.174192,0.152396 -0.265364,0.2728932 -0.09126,0.1196137 -0.161344,0.2170765 -0.2103412,0.2906183 L 7.3574326,10.286001 c -0.1175732,0 -0.2065315,-0.03987 -0.266692,-0.119613"
       style="fill:#000000;fill-opacity:1;fill-rule:nonzero;stroke:none;stroke-width:0.00886023"
       id="path1792" />
    <path
       d="m 9.1586331,9.9803309 c 0,-0.2135338 0.075224,-0.5262978 0.2256703,-0.937412 -0.071148,-0.013291 -0.1189937,-0.02392 -0.143536,-0.034554 V 8.8745754 c 0.065566,0.00798 0.13122,0.015063 0.1969617,0.020377 0.123068,-0.3092217 0.2549978,-0.575028 0.3958749,-0.7965343 0.1408777,-0.2215052 0.255086,-0.3322577 0.342713,-0.3322577 0.02995,0 0.05671,0.01152 0.07992,0.032777 0.02321,0.022154 0.03491,0.050509 0.03491,0.086831 0,0.048731 -0.02605,0.122272 -0.07797,0.218848 -0.052,0.097463 -0.125814,0.2268206 -0.2215933,0.3880766 -0.09578,0.161256 -0.172332,0.2994754 -0.2297451,0.4146583 0.3145364,0 0.5648384,-0.00975 0.7509024,-0.02924 v 0.1435349 c -0.325613,0.027468 -0.6005447,0.04164 -0.8247973,0.04164 -0.1422063,0.33846 -0.2133543,0.615784 -0.2133543,0.8302034 0,0.1134094 0.0178,0.1931514 0.053337,0.2401104 0.035526,0.04696 0.091613,0.07 0.168256,0.07 0.1368023,0 0.2769708,-0.06291 0.4205946,-0.187838 0.143536,-0.125813 0.268731,-0.2959313 0.375408,-0.5103478 l 0.0575,0.04076 c -0.112259,0.2560594 -0.257213,0.4642718 -0.434948,0.6255298 -0.1779129,0.16037 -0.3625603,0.240997 -0.5539409,0.240997 -0.125904,0 -0.2243406,-0.03633 -0.2954886,-0.10898 -0.071062,-0.07266 -0.10668,-0.180752 -0.10668,-0.3234"
       style="fill:#000000;fill-opacity:1;fill-rule:nonzero;stroke:none;stroke-width:0.00886023"
       id="path1794" />
    <path
       d="m 10.976307,8.3367594 c 0,-0.062907 0.03491,-0.118728 0.10464,-0.166572 0.06982,-0.047846 0.144244,-0.071768 0.223632,-0.071768 0.117576,0 0.176408,0.051389 0.176408,0.152396 0,0.057593 -0.03145,0.112524 -0.09436,0.1656857 -0.063,0.05316 -0.131308,0.080628 -0.205115,0.080628 -0.0575,0 -0.106056,-0.014183 -0.145662,-0.04164 -0.03969,-0.027468 -0.05954,-0.066453 -0.05954,-0.1187251 z m -0.640062,1.6453412 c 0,-0.1089789 0.0288,-0.2534006 0.0863,-0.4332635 0.05741,-0.178976 0.135383,-0.3437771 0.233909,-0.4944005 0.09853,-0.1497377 0.195722,-0.2250492 0.291501,-0.2250492 0.03544,0 0.06477,0.00975 0.08789,0.031011 0.02322,0.020377 0.03482,0.049623 0.03482,0.087716 0,0.036326 -0.03464,0.110752 -0.103841,0.2250485 -0.06929,0.1134115 -0.139104,0.2427686 -0.209277,0.3863046 -0.07035,0.1444229 -0.105348,0.2684657 -0.105348,0.3730171 0,0.085059 0.0148,0.1426484 0.04456,0.1727744 0.02968,0.03013 0.07558,0.04519 0.137776,0.04519 0.215481,0 0.429632,-0.2099861 0.642366,-0.6290746 l 0.06158,0.065566 c -0.09551,0.240112 -0.216808,0.4261796 -0.363888,0.5599666 -0.14699,0.133791 -0.304968,0.200242 -0.473844,0.200242 -0.11598,0 -0.205824,-0.03455 -0.269262,-0.102779 -0.06344,-0.06822 -0.09525,-0.15594 -0.09525,-0.2622644"
       style="fill:#000000;fill-opacity:1;fill-rule:nonzero;stroke:none;stroke-width:0.00886023"
       id="path1796" />
    <path
       d="M 12.084101,8.5662389 C 12.218067,8.449284 12.340516,8.3075206 12.451269,8.1418343 12.56211,7.976148 12.618904,7.8228657 12.621562,7.6802166 12.577882,7.699708 12.502569,7.7953994 12.395892,7.967288 12.289215,8.1400623 12.185196,8.3394171 12.084101,8.5662389 Z m -0.705717,1.4769981 c 0,-0.2374524 0.0513,-0.5209799 0.153814,-0.8505816 0.102601,-0.3295994 0.222214,-0.6317325 0.359016,-0.9055131 0.136802,-0.2728949 0.277591,-0.5068052 0.422633,-0.7017297 0.144953,-0.1940383 0.257123,-0.2906155 0.336422,-0.2906155 0.04537,0 0.08338,0.028354 0.114032,0.085944 0.03065,0.057594 0.04599,0.1284749 0.04599,0.2135315 0,0.1940383 -0.08027,0.415544 -0.24082,0.6645165 -0.160725,0.248972 -0.362118,0.4447829 -0.604355,0.5865469 -0.145043,0.3420046 -0.229746,0.671604 -0.254378,0.9888011 0.2954,-0.6778062 0.59904,-1.0171537 0.910832,-1.0171537 0.108271,0 0.203075,0.038989 0.284324,0.1169549 0.08134,0.077971 0.121915,0.1727737 0.121915,0.2852988 0,0.1010069 -0.0381,0.1904943 -0.11412,0.2684635 -0.07602,0.077972 -0.156205,0.132904 -0.240376,0.1639143 -0.08426,0.031897 -0.161611,0.048731 -0.232227,0.051388 0.07062,0.3198541 0.177913,0.4802251 0.32198,0.4802251 0.09853,0 0.202456,-0.06468 0.31188,-0.1949234 0.109336,-0.1302457 0.209278,-0.2950468 0.299475,-0.4944022 l 0.05751,0.069995 c -0.07664,0.2215063 -0.18607,0.4128874 -0.328277,0.5741436 -0.142296,0.161256 -0.286539,0.241885 -0.432821,0.241885 -0.106678,0 -0.199,-0.04696 -0.276972,-0.141764 -0.07797,-0.09392 -0.132726,-0.19758 -0.16409,-0.3092206 -0.03154,-0.1125263 -0.04723,-0.2161903 -0.04723,-0.31188 0.352903,-0.079742 0.52931,-0.2011286 0.52931,-0.36504 0,-0.049617 -0.01578,-0.089491 -0.04713,-0.1196137 -0.03154,-0.030126 -0.07593,-0.045189 -0.133347,-0.045189 -0.262616,0 -0.525233,0.3517503 -0.78785,1.0552513 -0.03013,0.08152 -0.05883,0.137334 -0.08621,0.165688 -0.02729,0.02835 -0.06698,0.04341 -0.118904,0.04341 -0.106678,0 -0.160016,-0.102777 -0.160016,-0.308336"
       style="fill:#000000;fill-opacity:1;fill-rule:nonzero;stroke:none;stroke-width:0.00886023"
       id="path1798" />
    <path
       d="m 13.380616,10.109688 c 0,-0.04696 0.02968,-0.0948 0.08913,-0.14442 0.05945,-0.048731 0.116867,-0.073541 0.172064,-0.073541 0.09117,0 0.136802,0.042526 0.136802,0.127588 0,0.04341 -0.02001,0.09569 -0.06008,0.15594 -0.04013,0.05936 -0.09188,0.08949 -0.155498,0.08949 -0.06079,0 -0.106413,-0.01506 -0.136802,-0.04696 -0.03039,-0.03101 -0.04563,-0.06734 -0.04563,-0.108096"
       style="fill:#000000;fill-opacity:1;fill-rule:nonzero;stroke:none;stroke-width:0.00886023"
       id="path1800" />
    <path
       d="m 14.201251,9.9121069 c 0,-0.2675795 0.09577,-0.5138932 0.287249,-0.7380572 0.191468,-0.2241628 0.399331,-0.3366886 0.623671,-0.3366886 0.105266,0 0.183493,0.027469 0.234796,0.0824 0.05131,0.054046 0.077,0.1231589 0.077,0.2046732 0,0.082399 -0.01863,0.1577097 -0.056,0.2277051 -0.03731,0.069997 -0.08284,0.104552 -0.136803,0.104552 -0.052,0 -0.09436,-0.025691 -0.127227,-0.07797 0.08753,-0.060246 0.131307,-0.162144 0.131307,-0.3074497 0,-0.04696 -0.02605,-0.069996 -0.07788,-0.069996 -0.134144,0 -0.274312,0.1098674 -0.420684,0.3287137 -0.146372,0.218848 -0.219467,0.42086 -0.219467,0.6069263 0,0.2055553 0.09577,0.3074493 0.287247,0.3074493 h 0.004 c 0.161435,0 0.326147,-0.06734 0.494401,-0.202898 0.168254,-0.1355622 0.296107,-0.3109942 0.383648,-0.5271833 l 0.08204,0.073539 c -0.09843,0.2489737 -0.250296,0.4554173 -0.455409,0.6202173 -0.205113,0.163915 -0.413064,0.245428 -0.623669,0.245428 -0.1477,0 -0.266072,-0.04519 -0.354942,-0.137332 -0.0888,-0.09126 -0.13328,-0.225939 -0.13328,-0.4040288"
       style="fill:#000000;fill-opacity:1;fill-rule:nonzero;stroke:none;stroke-width:0.00886023"
       id="path1802" />
    <path
       d="m 16.384053,9.3229017 c 0,0.063794 0.01107,0.1355623 0.03323,0.2170743 0.02215,0.080628 0.05112,0.143536 0.08709,0.1869497 0.160458,-0.2277051 0.24073,-0.4323771 0.24073,-0.614012 0,-0.1205 -0.0388,-0.1816337 -0.11616,-0.1816337 -0.05812,0 -0.113507,0.038989 -0.166039,0.116068 -0.05263,0.077087 -0.07885,0.1683457 -0.07885,0.2755537 z m -0.512917,0.6352772 c 0,0.1258161 0.04652,0.1878361 0.139461,0.1878361 0.09648,0 0.225136,-0.09569 0.385862,-0.2879556 C 16.245748,9.721612 16.16636,9.5195971 16.158385,9.2529051 c -0.052,0.027469 -0.11288,0.122272 -0.182609,0.2853 -0.06973,0.1621423 -0.10464,0.3021338 -0.10464,0.4199738 z m -0.328184,0.01152 c 0,-0.1798623 0.05184,-0.3570692 0.155852,-0.5289578 0.103933,-0.172772 0.216104,-0.2587177 0.336512,-0.2587177 0.03279,0 0.07513,0.01152 0.127053,0.033669 0.01612,-0.1267023 0.06007,-0.2321383 0.131574,-0.3154246 0.07159,-0.083285 0.172154,-0.1249303 0.30178,-0.1249303 0.115626,0 0.200949,0.031892 0.255706,0.093917 0.05493,0.062907 0.0824,0.143536 0.0824,0.243656 0,0.189608 -0.09613,0.4235177 -0.2884,0.700844 0.03367,0.016817 0.07283,0.024811 0.117667,0.024811 0.07647,0 0.158597,-0.025691 0.246135,-0.076196 0.08753,-0.051394 0.154524,-0.1284731 0.201041,-0.2330246 l 0.07389,0.05316 c -0.05741,0.13114 -0.134762,0.2294869 -0.231781,0.2977109 -0.0972,0.068224 -0.198115,0.101892 -0.302755,0.101892 -0.06371,0 -0.13308,-0.0124 -0.207861,-0.036326 -0.22496,0.2728922 -0.451251,0.4093402 -0.678868,0.4093402 -0.114827,0 -0.196876,-0.03633 -0.246139,-0.110752 -0.04927,-0.07354 -0.07381,-0.164802 -0.07381,-0.2746659"
       style="fill:#000000;fill-opacity:1;fill-rule:nonzero;stroke:none;stroke-width:0.00886023"
       id="path1804" />
    <path
       d="m 16.983093,10.224873 c 0.159043,-0.6547701 0.243747,-1.0029781 0.254467,-1.0437359 0.0081,-0.030126 0.03756,-0.056709 0.08816,-0.079742 0.05059,-0.023034 0.0964,-0.034554 0.13742,-0.034554 0.04101,0 0.07452,0.01152 0.10056,0.03544 0.02596,0.023034 0.03899,0.054046 0.03899,0.092146 0,0.045189 -0.01924,0.145308 -0.05749,0.3021326 0.306386,-0.4288343 0.573078,-0.6432515 0.800166,-0.6432515 0.172332,0 0.258541,0.1187252 0.258541,0.3544092 0,0.080625 -0.02331,0.1913823 -0.06981,0.3331434 0.191821,-0.2852977 0.390648,-0.4288337 0.596292,-0.4288337 0.098,0 0.169409,0.030126 0.214418,0.090374 0.04484,0.060247 0.06733,0.1355623 0.06733,0.2250508 0,0.076196 -0.02251,0.1878337 -0.06769,0.3349166 -0.04511,0.147964 -0.06769,0.2418835 -0.06769,0.2826405 0,0.07265 0.03312,0.108979 0.09959,0.108979 0.17233,0 0.356977,-0.2108726 0.553852,-0.6326189 L 20,9.6064291 c -0.07939,0.2037858 -0.181281,0.3783315 -0.30568,0.5254109 -0.124573,0.146192 -0.266425,0.219734 -0.425909,0.219734 -0.102507,0 -0.181459,-0.03013 -0.236832,-0.09038 -0.05537,-0.05937 -0.08311,-0.135562 -0.08311,-0.228592 0,-0.062027 0.01915,-0.1559403 0.05749,-0.2799831 0.03828,-0.1249309 0.05741,-0.2099869 0.05741,-0.2560618 0,-0.081512 -0.03153,-0.121384 -0.09436,-0.121384 -0.06025,0 -0.129987,0.043412 -0.209282,0.1293578 -0.07939,0.086831 -0.186064,0.2294811 -0.32003,0.4270628 -0.03563,0.048731 -0.07868,0.1205003 -0.129267,0.2135333 -0.0506,0.09392 -0.08276,0.15151 -0.0964,0.17366 -0.04917,0 -0.1026,-0.0097 -0.160016,-0.02924 -0.05741,-0.01862 -0.08621,-0.04519 -0.08621,-0.07797 0,-0.01862 0.04519,-0.148852 0.13547,-0.388965 0.0902,-0.2409966 0.135386,-0.410228 0.135386,-0.5076891 0,-0.085945 -0.0288,-0.1284738 -0.08621,-0.1284738 -0.112173,0 -0.266074,0.1231589 -0.461529,0.371244 -0.195636,0.2472 -0.342627,0.5068049 -0.441151,0.7770409 -0.04784,0 -0.104106,-0.01328 -0.169144,-0.04076 -0.06504,-0.02658 -0.09755,-0.0505 -0.09755,-0.06911"
       style="fill:#000000;fill-opacity:1;fill-rule:nonzero;stroke:none;stroke-width:0.00886023"
       id="path1806" />
  </g>
</svg>
